<svg width="247" height="43" viewBox="0 0 247 43" fill="none" xmlns="http://www.w3.org/2000/svg">
<path d="M64.1699 13.2107V34.3459C63.9774 34.4277 63.6886 34.4958 63.3035 34.5503C62.946 34.6321 62.561 34.673 62.1484 34.673C61.2959 34.673 60.6908 34.5231 60.3333 34.2233C59.9757 33.8962 59.797 33.3648 59.797 32.6289V13.2107H52.495C52.3575 13.0199 52.2338 12.7746 52.1238 12.4748C52.0413 12.1751 52 11.8344 52 11.4528C52 10.8532 52.1375 10.4036 52.4125 10.1038C52.7151 9.77673 53.1139 9.61321 53.6089 9.61321H71.5543C71.6643 9.77673 71.7606 10.0084 71.8431 10.3082C71.9531 10.608 72.0081 10.935 72.0081 11.2893C72.0081 12.5702 71.4718 13.2107 70.3992 13.2107H64.1699Z" fill="#54433D"/>
<path d="M87.8986 28.2138H77.8326L75.8112 34.4686C75.5637 34.5776 75.3024 34.6593 75.0274 34.7138C74.7523 34.7683 74.4223 34.7956 74.0373 34.7956C73.3497 34.7956 72.7859 34.6457 72.3459 34.3459C71.9058 34.0461 71.6858 33.5964 71.6858 32.9969C71.6858 32.6971 71.7271 32.4109 71.8096 32.1384C71.8921 31.8386 72.0021 31.5115 72.1396 31.1572C72.4971 30.0126 72.9922 28.5409 73.6247 26.7421C74.2848 24.9161 74.9724 22.9948 75.6874 20.978C76.43 18.9612 77.1726 16.9853 77.9151 15.0503C78.6577 13.0881 79.304 11.412 79.8541 10.022C80.1291 9.85849 80.5554 9.7086 81.1329 9.57233C81.7105 9.40881 82.3018 9.32705 82.9068 9.32705C83.7044 9.32705 84.4195 9.43606 85.052 9.65409C85.6846 9.87212 86.1109 10.2537 86.3309 10.7987C86.936 12.3522 87.596 14.1237 88.3111 16.1132C89.0262 18.0755 89.7412 20.1059 90.4563 22.2044C91.1714 24.3029 91.8589 26.3606 92.519 28.3774C93.179 30.3941 93.7703 32.2201 94.2929 33.8553C94.0454 34.1279 93.7153 34.3459 93.3028 34.5094C92.9178 34.7002 92.4502 34.7956 91.9002 34.7956C91.1576 34.7956 90.6213 34.6593 90.2913 34.3868C89.9612 34.087 89.6862 33.5964 89.4662 32.9151L87.8986 28.2138ZM82.8656 13.1289C82.5906 13.8648 82.288 14.696 81.958 15.6226C81.628 16.5493 81.2842 17.5304 80.9267 18.566C80.5691 19.5744 80.2116 20.6101 79.8541 21.673C79.4965 22.7086 79.1527 23.717 78.8227 24.6981H86.9497C86.5922 23.608 86.2209 22.5178 85.8359 21.4277C85.4783 20.3103 85.1208 19.2474 84.7633 18.239C84.4332 17.2306 84.117 16.2904 83.8144 15.4182C83.5119 14.5189 83.2644 13.7558 83.0719 13.1289H82.8656Z" fill="#54433D"/>
<path d="M102.361 34.3459C102.141 34.4277 101.852 34.4958 101.494 34.5503C101.137 34.6321 100.738 34.673 100.298 34.673C99.4453 34.673 98.8265 34.5231 98.4415 34.2233C98.0839 33.8962 97.9052 33.3648 97.9052 32.6289V11.5346C97.9052 11.0713 98.0289 10.717 98.2765 10.4717C98.5515 10.1992 98.9228 9.99476 99.3903 9.85849C100.243 9.5587 101.26 9.3543 102.443 9.24528C103.626 9.13627 104.808 9.08176 105.991 9.08176C109.566 9.08176 112.22 9.80398 113.953 11.2484C115.713 12.6656 116.593 14.6688 116.593 17.2579C116.593 19.0566 116.112 20.5964 115.149 21.8774C114.214 23.131 112.867 24.0713 111.106 24.6981C111.766 25.5157 112.413 26.3333 113.045 27.1509C113.678 27.9413 114.269 28.7044 114.819 29.4403C115.397 30.1488 115.906 30.8029 116.346 31.4025C116.813 31.9748 117.184 32.4518 117.459 32.8333C117.322 33.4602 117.019 33.9371 116.552 34.2641C116.084 34.5912 115.576 34.7547 115.026 34.7547C114.365 34.7547 113.843 34.6048 113.458 34.305C113.073 33.978 112.688 33.5419 112.303 32.9969L106.981 25.3931H102.361V34.3459ZM106.321 21.8774C108.109 21.8774 109.525 21.4958 110.57 20.7327C111.615 19.9696 112.138 18.8113 112.138 17.2579C112.138 15.7317 111.601 14.587 110.529 13.8239C109.484 13.0608 107.93 12.6792 105.867 12.6792C105.235 12.6792 104.602 12.7065 103.969 12.761C103.364 12.8155 102.814 12.8837 102.319 12.9654V21.8774H106.321Z" fill="#54433D"/>
<path d="M144.436 22C144.436 24.1258 144.12 26.0063 143.487 27.6415C142.882 29.2495 142.029 30.5985 140.929 31.6887C139.829 32.7788 138.537 33.6101 137.052 34.1824C135.566 34.7275 133.944 35 132.184 35C130.423 35 128.787 34.7275 127.274 34.1824C125.789 33.6101 124.497 32.7788 123.396 31.6887C122.324 30.5985 121.471 29.2495 120.839 27.6415C120.234 26.0063 119.931 24.1258 119.931 22C119.931 19.8742 120.247 18.0073 120.88 16.3994C121.513 14.7914 122.379 13.4423 123.479 12.3522C124.579 11.2348 125.872 10.4036 127.357 9.85849C128.87 9.28617 130.478 9 132.184 9C133.916 9 135.525 9.28617 137.01 9.85849C138.495 10.4036 139.788 11.2348 140.888 12.3522C141.988 13.4423 142.855 14.7914 143.487 16.3994C144.12 18.0073 144.436 19.8742 144.436 22ZM139.939 22C139.939 18.9476 139.238 16.631 137.835 15.0503C136.433 13.4423 134.549 12.6384 132.184 12.6384C129.873 12.6384 128.003 13.4423 126.573 15.0503C125.17 16.6583 124.469 18.9748 124.469 22C124.469 25.0524 125.17 27.3826 126.573 28.9906C127.976 30.5985 129.846 31.4025 132.184 31.4025C134.549 31.4025 136.433 30.5985 137.835 28.9906C139.238 27.3826 139.939 25.0524 139.939 22Z" fill="#54433D"/>
<path d="M157.921 13.2107V34.3459C157.728 34.4277 157.439 34.4958 157.054 34.5503C156.697 34.6321 156.312 34.673 155.899 34.673C155.047 34.673 154.442 34.5231 154.084 34.2233C153.727 33.8962 153.548 33.3648 153.548 32.6289V13.2107H146.246C146.108 13.0199 145.985 12.7746 145.875 12.4748C145.792 12.1751 145.751 11.8344 145.751 11.4528C145.751 10.8532 145.888 10.4036 146.163 10.1038C146.466 9.77673 146.865 9.61321 147.36 9.61321H165.305C165.415 9.77673 165.511 10.0084 165.594 10.3082C165.704 10.608 165.759 10.935 165.759 11.2893C165.759 12.5702 165.223 13.2107 164.15 13.2107H157.921Z" fill="#54433D"/>
<path d="M195.19 15.9088C195.19 17.108 194.888 18.1845 194.283 19.1384C193.678 20.065 192.715 20.8008 191.395 21.3459C192.99 21.8637 194.173 22.6541 194.943 23.717C195.74 24.7799 196.139 26.0199 196.139 27.4371C196.139 29.999 195.204 31.8931 193.334 33.1195C191.491 34.3187 188.837 34.9182 185.372 34.9182C184.299 34.9182 183.158 34.8637 181.948 34.7547C180.765 34.6457 179.665 34.4413 178.648 34.1415C177.382 33.7872 176.75 33.065 176.75 31.9748V11.5346C176.75 11.0713 176.874 10.717 177.121 10.4717C177.396 10.1992 177.768 9.99476 178.235 9.85849C179.17 9.5587 180.201 9.3543 181.329 9.24528C182.484 9.13627 183.722 9.08176 185.042 9.08176C188.26 9.08176 190.749 9.64046 192.509 10.7579C194.297 11.8753 195.19 13.5922 195.19 15.9088ZM191.643 27.3145C191.643 26.0608 191.175 25.0797 190.24 24.3711C189.305 23.6352 187.957 23.2673 186.197 23.2673H181.082V31.0346C181.659 31.1709 182.347 31.2799 183.144 31.3616C183.942 31.4161 184.739 31.4434 185.537 31.4434C187.49 31.4434 188.989 31.1164 190.034 30.4623C191.106 29.7809 191.643 28.7317 191.643 27.3145ZM181.082 19.956H185.991C187.558 19.956 188.741 19.6153 189.539 18.934C190.336 18.2526 190.735 17.326 190.735 16.1541C190.735 13.7558 188.837 12.5566 185.042 12.5566C184.244 12.5566 183.516 12.5839 182.855 12.6384C182.195 12.6929 181.604 12.761 181.082 12.8428V19.956Z" fill="#54433D"/>
<path d="M223.966 22C223.966 24.1258 223.649 26.0063 223.017 27.6415C222.412 29.2495 221.559 30.5985 220.459 31.6887C219.359 32.7788 218.066 33.6101 216.581 34.1824C215.096 34.7275 213.473 35 211.713 35C209.953 35 208.317 34.7275 206.804 34.1824C205.319 33.6101 204.026 32.7788 202.926 31.6887C201.853 30.5985 201.001 29.2495 200.368 27.6415C199.763 26.0063 199.461 24.1258 199.461 22C199.461 19.8742 199.777 18.0073 200.41 16.3994C201.042 14.7914 201.908 13.4423 203.009 12.3522C204.109 11.2348 205.401 10.4036 206.886 9.85849C208.399 9.28617 210.008 9 211.713 9C213.446 9 215.055 9.28617 216.54 9.85849C218.025 10.4036 219.318 11.2348 220.418 12.3522C221.518 13.4423 222.384 14.7914 223.017 16.3994C223.649 18.0073 223.966 19.8742 223.966 22ZM219.469 22C219.469 18.9476 218.768 16.631 217.365 15.0503C215.962 13.4423 214.078 12.6384 211.713 12.6384C209.403 12.6384 207.533 13.4423 206.103 15.0503C204.7 16.6583 203.999 18.9748 203.999 22C203.999 25.0524 204.7 27.3826 206.103 28.9906C207.505 30.5985 209.375 31.4025 211.713 31.4025C214.078 31.4025 215.962 30.5985 217.365 28.9906C218.768 27.3826 219.469 25.0524 219.469 22Z" fill="#54433D"/>
<path d="M233.056 25.8836V34.3459C232.836 34.4277 232.547 34.4958 232.19 34.5503C231.832 34.6321 231.434 34.673 230.994 34.673C230.141 34.673 229.522 34.5231 229.137 34.2233C228.78 33.8962 228.601 33.3648 228.601 32.6289V11.5346C228.601 11.0713 228.725 10.717 228.972 10.4717C229.247 10.1992 229.618 9.99476 230.086 9.85849C230.939 9.5587 231.956 9.3543 233.139 9.24528C234.321 9.13627 235.435 9.08176 236.48 9.08176C240.056 9.08176 242.696 9.83124 244.401 11.3302C246.134 12.8291 247 14.8595 247 17.4214C247 19.9832 246.134 22.0409 244.401 23.5943C242.696 25.1205 240.138 25.8836 236.728 25.8836H233.056ZM236.439 22.327C238.337 22.327 239.822 21.9182 240.894 21.1006C241.995 20.283 242.545 19.0566 242.545 17.4214C242.545 15.7862 242.022 14.587 240.977 13.8239C239.959 13.0608 238.488 12.6792 236.563 12.6792C235.93 12.6792 235.298 12.7065 234.665 12.761C234.06 12.8155 233.51 12.8837 233.015 12.9654V22.327H236.439Z" fill="#54433D"/>
<path fill-rule="evenodd" clip-rule="evenodd" d="M21.5 39.56C31.4743 39.56 39.56 31.4743 39.56 21.5C39.56 11.5257 31.4743 3.44 21.5 3.44C11.5257 3.44 3.44 11.5257 3.44 21.5C3.44 31.4743 11.5257 39.56 21.5 39.56ZM21.5 43C33.3741 43 43 33.3741 43 21.5C43 9.62588 33.3741 0 21.5 0C9.62588 0 0 9.62588 0 21.5C0 33.3741 9.62588 43 21.5 43Z" fill="#54433D"/>
<path fill-rule="evenodd" clip-rule="evenodd" d="M15.2482 12.6602C13.8414 13.5594 12.6728 14.7832 12.0313 16.0951C11.6362 16.9034 10.6751 17.231 9.88478 16.8269C9.09444 16.4227 8.77409 15.4399 9.16926 14.6316C10.1278 12.6709 11.7591 11.0312 13.5522 9.88502C15.3395 8.74258 17.43 8 19.4 8C20.2837 8 21 8.7326 21 9.6363C21 10.54 20.2837 11.2726 19.4 11.2726C18.1701 11.2726 16.6608 11.7572 15.2482 12.6602Z" fill="#54433D"/>
<path d="M10 20.5C10 21.3284 9.32843 22 8.5 22C7.67157 22 7 21.3284 7 20.5C7 19.6716 7.67157 19 8.5 19C9.32843 19 10 19.6716 10 20.5Z" fill="#54433D"/>
</svg>
