<svg width="145" height="25" viewBox="0 0 145 25" fill="none" xmlns="http://www.w3.org/2000/svg">
<path d="M38.632 7.54402V19.952C38.52 20 38.352 20.04 38.128 20.072C37.92 20.12 37.696 20.144 37.456 20.144C36.96 20.144 36.608 20.056 36.4 19.88C36.192 19.688 36.088 19.376 36.088 18.944V7.54402H31.84C31.76 7.43202 31.688 7.28802 31.624 7.11202C31.576 6.93602 31.552 6.73602 31.552 6.51202C31.552 6.16002 31.632 5.89602 31.792 5.72002C31.968 5.52802 32.2 5.43202 32.488 5.43202H42.928C42.992 5.52802 43.048 5.66402 43.096 5.84002C43.16 6.01602 43.192 6.20802 43.192 6.41602C43.192 7.16802 42.88 7.54402 42.256 7.54402H38.632Z" fill="#563E2E"/>
<path d="M52.4365 16.352H46.5805L45.4045 20.024C45.2605 20.088 45.1085 20.136 44.9485 20.168C44.7885 20.2 44.5965 20.216 44.3725 20.216C43.9725 20.216 43.6445 20.128 43.3885 19.952C43.1325 19.776 43.0045 19.512 43.0045 19.16C43.0045 18.984 43.0285 18.816 43.0765 18.656C43.1245 18.48 43.1885 18.288 43.2685 18.08C43.4765 17.408 43.7645 16.544 44.1325 15.488C44.5165 14.416 44.9165 13.288 45.3325 12.104C45.7645 10.92 46.1965 9.76002 46.6285 8.62402C47.0605 7.47202 47.4365 6.48802 47.7565 5.67202C47.9165 5.57602 48.1645 5.48802 48.5005 5.40802C48.8365 5.31202 49.1805 5.26402 49.5325 5.26402C49.9965 5.26402 50.4125 5.32802 50.7805 5.45602C51.1485 5.58402 51.3965 5.80802 51.5245 6.12802C51.8765 7.04002 52.2605 8.08002 52.6765 9.24802C53.0925 10.4 53.5085 11.592 53.9245 12.824C54.3405 14.056 54.7405 15.264 55.1245 16.448C55.5085 17.632 55.8525 18.704 56.1565 19.664C56.0125 19.824 55.8205 19.952 55.5805 20.048C55.3565 20.16 55.0845 20.216 54.7645 20.216C54.3325 20.216 54.0205 20.136 53.8285 19.976C53.6365 19.8 53.4765 19.512 53.3485 19.112L52.4365 16.352ZM49.5085 7.49602C49.3485 7.92802 49.1725 8.41602 48.9805 8.96002C48.7885 9.50402 48.5885 10.08 48.3805 10.688C48.1725 11.28 47.9645 11.888 47.7565 12.512C47.5485 13.12 47.3485 13.712 47.1565 14.288H51.8845C51.6765 13.648 51.4605 13.008 51.2365 12.368C51.0285 11.712 50.8205 11.088 50.6125 10.496C50.4205 9.90402 50.2365 9.35202 50.0605 8.84002C49.8845 8.31202 49.7405 7.86402 49.6285 7.49602H49.5085Z" fill="#563E2E"/>
<path d="M60.85 19.952C60.722 20 60.554 20.04 60.346 20.072C60.138 20.12 59.906 20.144 59.65 20.144C59.154 20.144 58.794 20.056 58.57 19.88C58.362 19.688 58.258 19.376 58.258 18.944V6.56002C58.258 6.28802 58.33 6.08002 58.474 5.93602C58.634 5.77602 58.85 5.65602 59.122 5.57602C59.618 5.40002 60.21 5.28002 60.898 5.21602C61.586 5.15202 62.274 5.12002 62.962 5.12002C65.042 5.12002 66.586 5.54402 67.594 6.39202C68.618 7.22402 69.13 8.40002 69.13 9.92002C69.13 10.976 68.85 11.88 68.29 12.632C67.746 13.368 66.962 13.92 65.938 14.288C66.322 14.768 66.698 15.248 67.066 15.728C67.434 16.192 67.778 16.64 68.098 17.072C68.434 17.488 68.73 17.872 68.986 18.224C69.258 18.56 69.474 18.84 69.634 19.064C69.554 19.432 69.378 19.712 69.106 19.904C68.834 20.096 68.538 20.192 68.218 20.192C67.834 20.192 67.53 20.104 67.306 19.928C67.082 19.736 66.858 19.48 66.634 19.16L63.538 14.696H60.85V19.952ZM63.154 12.632C64.194 12.632 65.018 12.408 65.626 11.96C66.234 11.512 66.538 10.832 66.538 9.92002C66.538 9.02402 66.226 8.35202 65.602 7.90402C64.994 7.45602 64.09 7.23202 62.89 7.23202C62.522 7.23202 62.154 7.24802 61.786 7.28002C61.434 7.31202 61.114 7.35202 60.826 7.40002V12.632H63.154Z" fill="#563E2E"/>
<path d="M85.3279 12.704C85.3279 13.952 85.1439 15.056 84.7759 16.016C84.4239 16.96 83.9279 17.752 83.2879 18.392C82.6479 19.032 81.8959 19.52 81.0319 19.856C80.1679 20.176 79.2239 20.336 78.1999 20.336C77.1759 20.336 76.2239 20.176 75.3439 19.856C74.4799 19.52 73.7279 19.032 73.0879 18.392C72.4639 17.752 71.9679 16.96 71.5999 16.016C71.2479 15.056 71.0719 13.952 71.0719 12.704C71.0719 11.456 71.2559 10.36 71.6239 9.41602C71.9919 8.47202 72.4959 7.68002 73.1359 7.04002C73.7759 6.38402 74.5279 5.89602 75.3919 5.57602C76.2719 5.24002 77.2079 5.07202 78.1999 5.07202C79.2079 5.07202 80.1439 5.24002 81.0079 5.57602C81.8719 5.89602 82.6239 6.38402 83.2639 7.04002C83.9039 7.68002 84.4079 8.47202 84.7759 9.41602C85.1439 10.36 85.3279 11.456 85.3279 12.704ZM82.7119 12.704C82.7119 10.912 82.3039 9.55202 81.4879 8.62402C80.6719 7.68002 79.5759 7.20802 78.1999 7.20802C76.8559 7.20802 75.7679 7.68002 74.9359 8.62402C74.1199 9.56802 73.7119 10.928 73.7119 12.704C73.7119 14.496 74.1199 15.864 74.9359 16.808C75.7519 17.752 76.8399 18.224 78.1999 18.224C79.5759 18.224 80.6719 17.752 81.4879 16.808C82.3039 15.864 82.7119 14.496 82.7119 12.704Z" fill="#563E2E"/>
<path d="M93.1729 7.54402V19.952C93.0609 20 92.8929 20.04 92.6689 20.072C92.4609 20.12 92.2369 20.144 91.9969 20.144C91.5009 20.144 91.1489 20.056 90.9409 19.88C90.7329 19.688 90.6289 19.376 90.6289 18.944V7.54402H86.3809C86.3009 7.43202 86.2289 7.28802 86.1649 7.11202C86.1169 6.93602 86.0929 6.73602 86.0929 6.51202C86.0929 6.16002 86.1729 5.89602 86.3329 5.72002C86.5089 5.52802 86.7409 5.43202 87.0289 5.43202H97.4689C97.5329 5.52802 97.5889 5.66402 97.6369 5.84002C97.7009 6.01602 97.7329 6.20802 97.7329 6.41602C97.7329 7.16802 97.4209 7.54402 96.7969 7.54402H93.1729Z" fill="#563E2E"/>
<path d="M114.855 9.12802C114.855 9.83202 114.679 10.464 114.327 11.024C113.975 11.568 113.415 12 112.647 12.32C113.575 12.624 114.263 13.088 114.711 13.712C115.175 14.336 115.407 15.064 115.407 15.896C115.407 17.4 114.863 18.512 113.775 19.232C112.703 19.936 111.159 20.288 109.143 20.288C108.519 20.288 107.855 20.256 107.151 20.192C106.463 20.128 105.823 20.008 105.231 19.832C104.495 19.624 104.127 19.2 104.127 18.56V6.56002C104.127 6.28802 104.199 6.08002 104.343 5.93602C104.503 5.77602 104.719 5.65602 104.991 5.57602C105.535 5.40002 106.135 5.28002 106.791 5.21602C107.463 5.15202 108.183 5.12002 108.951 5.12002C110.823 5.12002 112.271 5.44802 113.295 6.10402C114.335 6.76002 114.855 7.76802 114.855 9.12802ZM112.791 15.824C112.791 15.088 112.519 14.512 111.975 14.096C111.431 13.664 110.647 13.448 109.623 13.448H106.647V18.008C106.983 18.088 107.383 18.152 107.847 18.2C108.311 18.232 108.775 18.248 109.239 18.248C110.375 18.248 111.247 18.056 111.855 17.672C112.479 17.272 112.791 16.656 112.791 15.824ZM106.647 11.504H109.503C110.415 11.504 111.103 11.304 111.567 10.904C112.031 10.504 112.263 9.96002 112.263 9.27202C112.263 7.86402 111.159 7.16002 108.951 7.16002C108.487 7.16002 108.063 7.17602 107.679 7.20802C107.295 7.24002 106.951 7.28002 106.647 7.32802V11.504Z" fill="#563E2E"/>
<path d="M131.595 12.704C131.595 13.952 131.411 15.056 131.043 16.016C130.691 16.96 130.195 17.752 129.555 18.392C128.915 19.032 128.163 19.52 127.299 19.856C126.435 20.176 125.491 20.336 124.467 20.336C123.443 20.336 122.491 20.176 121.611 19.856C120.747 19.52 119.995 19.032 119.355 18.392C118.731 17.752 118.235 16.96 117.867 16.016C117.515 15.056 117.339 13.952 117.339 12.704C117.339 11.456 117.523 10.36 117.891 9.41602C118.259 8.47202 118.763 7.68002 119.403 7.04002C120.043 6.38402 120.795 5.89602 121.659 5.57602C122.539 5.24002 123.475 5.07202 124.467 5.07202C125.475 5.07202 126.411 5.24002 127.275 5.57602C128.139 5.89602 128.891 6.38402 129.531 7.04002C130.171 7.68002 130.675 8.47202 131.043 9.41602C131.411 10.36 131.595 11.456 131.595 12.704ZM128.979 12.704C128.979 10.912 128.571 9.55202 127.755 8.62402C126.939 7.68002 125.843 7.20802 124.467 7.20802C123.123 7.20802 122.035 7.68002 121.203 8.62402C120.387 9.56802 119.979 10.928 119.979 12.704C119.979 14.496 120.387 15.864 121.203 16.808C122.019 17.752 123.107 18.224 124.467 18.224C125.843 18.224 126.939 17.752 127.755 16.808C128.571 15.864 128.979 14.496 128.979 12.704Z" fill="#563E2E"/>
<path d="M136.884 14.984V19.952C136.756 20 136.588 20.04 136.38 20.072C136.172 20.12 135.94 20.144 135.684 20.144C135.188 20.144 134.828 20.056 134.604 19.88C134.396 19.688 134.292 19.376 134.292 18.944V6.56002C134.292 6.28802 134.364 6.08002 134.508 5.93602C134.668 5.77602 134.884 5.65602 135.156 5.57602C135.652 5.40002 136.244 5.28002 136.932 5.21602C137.62 5.15202 138.268 5.12002 138.876 5.12002C140.956 5.12002 142.492 5.56002 143.484 6.44002C144.492 7.32002 144.996 8.51202 144.996 10.016C144.996 11.52 144.492 12.728 143.484 13.64C142.492 14.536 141.004 14.984 139.02 14.984H136.884ZM138.852 12.896C139.956 12.896 140.82 12.656 141.444 12.176C142.084 11.696 142.404 10.976 142.404 10.016C142.404 9.05602 142.1 8.35202 141.492 7.90402C140.9 7.45602 140.044 7.23202 138.924 7.23202C138.556 7.23202 138.188 7.24802 137.82 7.28002C137.468 7.31202 137.148 7.35202 136.86 7.40002V12.896H138.852Z" fill="#563E2E"/>
<path fill-rule="evenodd" clip-rule="evenodd" d="M12.5 23C18.299 23 23 18.299 23 12.5C23 6.70101 18.299 2 12.5 2C6.70101 2 2 6.70101 2 12.5C2 18.299 6.70101 23 12.5 23ZM12.5 25C19.4036 25 25 19.4036 25 12.5C25 5.59644 19.4036 0 12.5 0C5.59644 0 0 5.59644 0 12.5C0 19.4036 5.59644 25 12.5 25Z" fill="#563E2E"/>
<path fill-rule="evenodd" clip-rule="evenodd" d="M8.90497 7.348C8.0257 7.89754 7.29529 8.64543 6.8944 9.44721C6.64741 9.94119 6.04674 10.1414 5.55276 9.89443C5.05878 9.64744 4.85856 9.04676 5.10555 8.55279C5.70466 7.35457 6.72425 6.35246 7.84498 5.652C8.96208 4.95381 10.2687 4.5 11.5 4.5C12.0523 4.5 12.5 4.94772 12.5 5.5C12.5 6.05228 12.0523 6.5 11.5 6.5C10.7313 6.5 9.78787 6.79619 8.90497 7.348Z" fill="#563E2E"/>
<path d="M6 12C6 12.5523 5.55228 13 5 13C4.44772 13 4 12.5523 4 12C4 11.4477 4.44772 11 5 11C5.55228 11 6 11.4477 6 12Z" fill="#563E2E"/>
</svg>
