<svg width="455" height="83" viewBox="0 0 455 83" fill="none" xmlns="http://www.w3.org/2000/svg">
<path d="M26.0999 10.1H0.399902V7H55.0999V10.1H29.3999V77H26.0999V10.1Z" fill="#54433D"/>
<path d="M110.653 56.5H68.7532L59.3531 77H55.6531L88.0532 7H91.3531L123.753 77H120.053L110.653 56.5ZM109.353 53.6L89.7532 10.9L70.0531 53.6H109.353Z" fill="#54433D"/>
<path d="M189.582 77L172.282 52.9C170.015 53.3 167.482 53.5 164.682 53.5H143.782V77H140.382V7H164.682C173.415 7 180.215 9.06666 185.082 13.2C190.015 17.2666 192.482 22.9333 192.482 30.2C192.482 35.8 191.015 40.5 188.082 44.3C185.215 48.0333 181.082 50.6333 175.682 52.1L193.582 77H189.582ZM164.882 50.4C172.682 50.4 178.682 48.6666 182.882 45.2C187.082 41.6666 189.182 36.6666 189.182 30.2C189.182 23.8 187.082 18.8666 182.882 15.4C178.682 11.8666 172.682 10.1 164.882 10.1H143.782V50.4H164.882Z" fill="#54433D"/>
<path d="M244.159 77.4001C237.359 77.4001 231.193 75.8668 225.659 72.8001C220.193 69.7334 215.893 65.5001 212.759 60.1001C209.626 54.7001 208.059 48.6667 208.059 42.0001C208.059 35.3334 209.626 29.3001 212.759 23.9001C215.893 18.5001 220.193 14.2667 225.659 11.2001C231.193 8.13343 237.359 6.6001 244.159 6.6001C250.959 6.6001 257.126 8.13343 262.659 11.2001C268.193 14.2667 272.526 18.5001 275.659 23.9001C278.793 29.3001 280.359 35.3334 280.359 42.0001C280.359 48.6667 278.793 54.7001 275.659 60.1001C272.526 65.5001 268.193 69.7334 262.659 72.8001C257.126 75.8668 250.959 77.4001 244.159 77.4001ZM244.159 74.3001C250.293 74.3001 255.859 72.9001 260.859 70.1001C265.859 67.3001 269.793 63.4334 272.659 58.5001C275.526 53.5667 276.959 48.0667 276.959 42.0001C276.959 35.9334 275.526 30.4334 272.659 25.5001C269.793 20.5667 265.859 16.7001 260.859 13.9001C255.859 11.1001 250.293 9.7001 244.159 9.7001C238.026 9.7001 232.459 11.1001 227.459 13.9001C222.526 16.7001 218.626 20.5667 215.759 25.5001C212.893 30.4334 211.459 35.9334 211.459 42.0001C211.459 48.0667 212.893 53.5667 215.759 58.5001C218.626 63.4334 222.526 67.3001 227.459 70.1001C232.459 72.9001 238.026 74.3001 244.159 74.3001Z" fill="#54433D"/>
<path d="M314.174 10.1H288.474V7H343.174V10.1H317.474V77H314.174V10.1Z" fill="#54433D"/>
<path fill-rule="evenodd" clip-rule="evenodd" d="M242.5 19.5C238.906 19.4999 234.076 20.8386 228.476 25.6388C223.777 29.667 221.5 34.9781 221.5 39.5C221.5 40.3284 220.828 41 220 41C219.172 41 218.5 40.3284 218.5 39.5C218.5 34.0218 221.223 27.9045 226.524 23.3611C232.59 18.1616 238.093 16.4999 242.5 16.5C243.328 16.5 244 17.1716 244 18C244 18.8284 243.328 19.5 242.5 19.5Z" fill="#54433D"/>
</svg>
