<svg width="455" height="83" viewBox="0 0 455 83" fill="none" xmlns="http://www.w3.org/2000/svg">
<g clip-path="url(#clip0_503_675)">
<path d="M243 76.5V6.5H272.2C279.733 6.5 285.633 8.03333 289.9 11.1C294.167 14.1667 296.3 18.6 296.3 24.4C296.3 28.2 295.4 31.4 293.6 34C291.8 36.6 289.3 38.5667 286.1 39.9C282.967 41.1667 279.433 41.8 275.5 41.8L277.3 39.8C282.1 39.8 286.2 40.5 289.6 41.9C293 43.3 295.567 45.3333 297.3 48C299.1 50.6667 300 54 300 58C300 63.8667 297.867 68.4333 293.6 71.7C289.333 74.9 282.867 76.5 274.2 76.5H243ZM248.1 72.1H274.2C280.933 72.1 286.067 70.9667 289.6 68.7C293.133 66.3667 294.9 62.6667 294.9 57.6C294.9 52.6 293.133 48.9667 289.6 46.7C286.067 44.3667 280.933 43.2 274.2 43.2H247.5V38.8H272C278.067 38.8 282.767 37.6333 286.1 35.3C289.433 32.9667 291.1 29.4667 291.1 24.8C291.1 20.2 289.433 16.7333 286.1 14.4C282.767 12.0667 278.067 10.9 272 10.9H248.1V72.1Z" fill="#54433D"/>
<path d="M347.895 77C342.695 77 337.862 76.1333 333.395 74.4C328.995 72.6 325.129 70.1 321.795 66.9C318.529 63.6333 315.995 59.8667 314.195 55.6C312.395 51.2667 311.495 46.5667 311.495 41.5C311.495 36.4333 312.395 31.7667 314.195 27.5C315.995 23.1667 318.529 19.4 321.795 16.2C325.129 12.9333 328.995 10.4333 333.395 8.7C337.862 6.9 342.695 6 347.895 6C353.095 6 357.895 6.9 362.295 8.7C366.762 10.4333 370.629 12.9 373.895 16.1C377.162 19.3 379.695 23.0667 381.495 27.4C383.362 31.6667 384.295 36.3667 384.295 41.5C384.295 46.6333 383.362 51.3667 381.495 55.7C379.695 59.9667 377.162 63.7 373.895 66.9C370.629 70.1 366.762 72.6 362.295 74.4C357.895 76.1333 353.095 77 347.895 77ZM347.895 72.3C352.362 72.3 356.495 71.5333 360.295 70C364.095 68.4667 367.395 66.3 370.195 63.5C372.995 60.7 375.162 57.4333 376.695 53.7C378.295 49.9667 379.095 45.9 379.095 41.5C379.095 37.0333 378.295 32.9667 376.695 29.3C375.162 25.5667 372.995 22.3 370.195 19.5C367.395 16.7 364.095 14.5333 360.295 13C356.495 11.4667 352.362 10.7 347.895 10.7C343.429 10.7 339.295 11.4667 335.495 13C331.695 14.5333 328.362 16.7 325.495 19.5C322.695 22.3 320.495 25.5667 318.895 29.3C317.362 32.9667 316.595 37.0333 316.595 41.5C316.595 45.9 317.362 49.9667 318.895 53.7C320.495 57.4333 322.695 60.7 325.495 63.5C328.362 66.3 331.695 68.4667 335.495 70C339.295 71.5333 343.429 72.3 347.895 72.3Z" fill="#54433D"/>
<path d="M401.984 76.5V6.5H427.084C432.951 6.5 437.984 7.43333 442.184 9.3C446.384 11.1667 449.618 13.8667 451.884 17.4C454.151 20.8667 455.284 25.1 455.284 30.1C455.284 34.9667 454.151 39.1667 451.884 42.7C449.618 46.2333 446.384 48.9333 442.184 50.8C437.984 52.6667 432.951 53.6 427.084 53.6H404.784L407.084 51.2V76.5H401.984ZM407.084 51.5L404.784 49H427.084C434.618 49 440.318 47.3667 444.184 44.1C448.118 40.7667 450.084 36.1 450.084 30.1C450.084 24.0333 448.118 19.3667 444.184 16.1C440.318 12.7667 434.618 11.1 427.084 11.1H404.784L407.084 8.6V51.5Z" fill="#54433D"/>
<path fill-rule="evenodd" clip-rule="evenodd" d="M333.518 27.63C329.584 31.6213 327.3 36.7661 327.3 41.5C327.3 42.8807 326.181 44 324.8 44C323.419 44 322.3 42.8807 322.3 41.5C322.3 35.2339 325.266 28.8787 329.957 24.12C334.67 19.3385 341.288 16 348.8 16C350.181 16 351.3 17.1193 351.3 18.5C351.3 19.8807 350.181 21 348.8 21C342.812 21 337.43 23.6615 333.518 27.63Z" fill="#54433D"/>
</g>
<defs>
<clipPath id="clip0_503_675">
<rect width="455" height="83" fill="white"/>
</clipPath>
</defs>
</svg>
