<svg width="455" height="83" viewBox="0 0 455 83" fill="none" xmlns="http://www.w3.org/2000/svg">
<path d="M25.2 76.5V11.1H0V6.5H55.5V11.1H30.3V76.5H25.2Z" fill="#54433D"/>
<path d="M52.932 76.5L85.132 6.5H90.232L122.432 76.5H116.932L86.532 9.7H88.732L58.432 76.5H52.932ZM64.732 56.8L66.432 52.5H108.332L110.032 56.8H64.732Z" fill="#54433D"/>
<path d="M135.14 76.5V6.5H160.24C166.107 6.5 171.14 7.43333 175.34 9.3C179.54 11.1667 182.773 13.8667 185.04 17.4C187.307 20.8667 188.44 25.1 188.44 30.1C188.44 34.9667 187.307 39.1667 185.04 42.7C182.773 46.1667 179.54 48.8667 175.34 50.8C171.14 52.6667 166.107 53.6 160.24 53.6H137.94L140.24 51.2V76.5H135.14ZM183.74 76.5L165.54 51.1H171.34L189.54 76.5H183.74ZM140.24 51.5L137.94 49.1H160.24C167.773 49.1 173.473 47.4333 177.34 44.1C181.273 40.7667 183.24 36.1 183.24 30.1C183.24 24.0333 181.273 19.3667 177.34 16.1C173.473 12.7667 167.773 11.1 160.24 11.1H137.94L140.24 8.6V51.5Z" fill="#54433D"/>
<path d="M236.813 77C231.613 77 226.779 76.1333 222.313 74.4C217.913 72.6 214.046 70.1 210.713 66.9C207.446 63.6333 204.913 59.8667 203.113 55.6C201.313 51.2667 200.413 46.5667 200.413 41.5C200.413 36.4333 201.313 31.7667 203.113 27.5C204.913 23.1667 207.446 19.4 210.713 16.2C214.046 12.9333 217.913 10.4333 222.313 8.7C226.779 6.9 231.613 6 236.813 6C242.013 6 246.813 6.9 251.213 8.7C255.679 10.4333 259.546 12.9 262.812 16.1C266.079 19.3 268.613 23.0667 270.413 27.4C272.279 31.6667 273.213 36.3667 273.213 41.5C273.213 46.6333 272.279 51.3667 270.413 55.7C268.613 59.9667 266.079 63.7 262.812 66.9C259.546 70.1 255.679 72.6 251.213 74.4C246.813 76.1333 242.013 77 236.813 77ZM236.813 72.3C241.279 72.3 245.413 71.5333 249.213 70C253.013 68.4667 256.313 66.3 259.113 63.5C261.913 60.7 264.079 57.4333 265.613 53.7C267.213 49.9667 268.013 45.9 268.013 41.5C268.013 37.0333 267.213 32.9667 265.613 29.3C264.079 25.5667 261.913 22.3 259.113 19.5C256.313 16.7 253.013 14.5333 249.213 13C245.413 11.4667 241.279 10.7 236.813 10.7C232.346 10.7 228.213 11.4667 224.413 13C220.613 14.5333 217.279 16.7 214.413 19.5C211.613 22.3 209.413 25.5667 207.812 29.3C206.279 32.9667 205.513 37.0333 205.513 41.5C205.513 45.9 206.279 49.9667 207.812 53.7C209.413 57.4333 211.613 60.7 214.413 63.5C217.279 66.3 220.613 68.4667 224.413 70C228.213 71.5333 232.346 72.3 236.813 72.3Z" fill="#54433D"/>
<path d="M303.325 76.5V11.1H278.125V6.5H333.625V11.1H308.425V76.5H303.325Z" fill="#54433D"/>
<path fill-rule="evenodd" clip-rule="evenodd" d="M222.318 27.63C218.384 31.6213 216.1 36.7661 216.1 41.5C216.1 42.8807 214.981 44 213.6 44C212.219 44 211.1 42.8807 211.1 41.5C211.1 35.2339 214.066 28.8787 218.757 24.12C223.47 19.3385 230.088 16 237.6 16C238.981 16 240.1 17.1193 240.1 18.5C240.1 19.8807 238.981 21 237.6 21C231.612 21 226.23 23.6615 222.318 27.63Z" fill="#54433D"/>
</svg>
