<svg width="455" height="83" viewBox="0 0 455 83" fill="none" xmlns="http://www.w3.org/2000/svg">
<path d="M26.1 10.1H0.400024V6.99998H55.1V10.1H29.4V77H26.1V10.1Z" fill="#48381D"/>
<path d="M110.653 56.5H68.7532L59.3531 77H55.6531L88.0532 6.99998H91.3531L123.753 77H120.053L110.653 56.5ZM109.353 53.6L89.7532 10.9L70.0531 53.6H109.353Z" fill="#48381D"/>
<path d="M189.582 77L172.282 52.9C170.015 53.3 167.482 53.5 164.682 53.5H143.782V77H140.382V6.99998H164.682C173.415 6.99998 180.215 9.06664 185.082 13.2C190.015 17.2666 192.482 22.9333 192.482 30.2C192.482 35.8 191.015 40.5 188.082 44.3C185.215 48.0333 181.082 50.6333 175.682 52.1L193.582 77H189.582ZM164.882 50.4C172.682 50.4 178.682 48.6666 182.882 45.2C187.082 41.6666 189.182 36.6666 189.182 30.2C189.182 23.8 187.082 18.8666 182.882 15.4C178.682 11.8666 172.682 10.1 164.882 10.1H143.782V50.4H164.882Z" fill="#48381D"/>
<path d="M244.159 77.4C237.359 77.4 231.193 75.8667 225.659 72.8C220.193 69.7333 215.893 65.5 212.759 60.1C209.626 54.7 208.059 48.6666 208.059 42C208.059 35.3333 209.626 29.3 212.759 23.9C215.893 18.5 220.193 14.2666 225.659 11.2C231.193 8.13331 237.359 6.59998 244.159 6.59998C250.959 6.59998 257.126 8.13331 262.659 11.2C268.193 14.2666 272.526 18.5 275.659 23.9C278.793 29.3 280.359 35.3333 280.359 42C280.359 48.6666 278.793 54.7 275.659 60.1C272.526 65.5 268.193 69.7333 262.659 72.8C257.126 75.8667 250.959 77.4 244.159 77.4ZM244.159 74.3C250.293 74.3 255.859 72.9 260.859 70.1C265.859 67.3 269.793 63.4333 272.659 58.5C275.526 53.5666 276.959 48.0666 276.959 42C276.959 35.9333 275.526 30.4333 272.659 25.5C269.793 20.5666 265.859 16.7 260.859 13.9C255.859 11.1 250.293 9.69998 244.159 9.69998C238.026 9.69998 232.459 11.1 227.459 13.9C222.526 16.7 218.626 20.5666 215.759 25.5C212.893 30.4333 211.459 35.9333 211.459 42C211.459 48.0666 212.893 53.5666 215.759 58.5C218.626 63.4333 222.526 67.3 227.459 70.1C232.459 72.9 238.026 74.3 244.159 74.3Z" fill="#48381D"/>
<path d="M314.174 10.1H288.474V6.99998H343.174V10.1H317.474V77H314.174V10.1Z" fill="#48381D"/>
<path fill-rule="evenodd" clip-rule="evenodd" d="M242.5 19.5C238.906 19.4999 234.076 20.8386 228.476 25.6388C223.777 29.667 221.5 34.9781 221.5 39.5C221.5 40.3284 220.828 41 220 41C219.172 41 218.5 40.3284 218.5 39.5C218.5 34.0218 221.223 27.9045 226.524 23.3611C232.59 18.1616 238.093 16.4999 242.5 16.5C243.328 16.5 244 17.1716 244 18C244 18.8284 243.328 19.5 242.5 19.5Z" fill="#48381D"/>
</svg>
