<svg width="455" height="83" viewBox="0 0 455 83" fill="none" xmlns="http://www.w3.org/2000/svg">
<path d="M277.1 41C282.567 41.8666 286.7 43.8 289.5 46.8C292.3 49.7333 293.7 53.6666 293.7 58.6C293.7 64.6 291.567 69.1667 287.3 72.3C283.033 75.4333 276.667 77 268.2 77H237.8V6.99998H266.2C273.6 6.99998 279.4 8.53331 283.6 11.6C287.8 14.6666 289.9 19.0666 289.9 24.8C289.9 29 288.767 32.4666 286.5 35.2C284.233 37.9333 281.1 39.8666 277.1 41ZM241.2 9.99998V40H266.3C272.767 40 277.767 38.7333 281.3 36.2C284.833 33.6 286.6 29.8666 286.6 25C286.6 20.1333 284.833 16.4333 281.3 13.9C277.767 11.3 272.767 9.99998 266.3 9.99998H241.2ZM268.4 74C275.667 74 281.133 72.7333 284.8 70.2C288.467 67.6666 290.3 63.7666 290.3 58.5C290.3 53.1666 288.467 49.2333 284.8 46.7C281.133 44.1666 275.667 42.9 268.4 42.9H241.2V74H268.4Z" fill="#48381D"/>
<path d="M344.8 77.4C338 77.4 331.833 75.8667 326.3 72.8C320.833 69.7333 316.533 65.5 313.4 60.1C310.267 54.7 308.7 48.6666 308.7 42C308.7 35.3333 310.267 29.3 313.4 23.9C316.533 18.5 320.833 14.2666 326.3 11.2C331.833 8.13331 338 6.59998 344.8 6.59998C351.6 6.59998 357.767 8.13331 363.3 11.2C368.833 14.2666 373.167 18.5 376.3 23.9C379.433 29.3 381 35.3333 381 42C381 48.6666 379.433 54.7 376.3 60.1C373.167 65.5 368.833 69.7333 363.3 72.8C357.767 75.8667 351.6 77.4 344.8 77.4ZM344.8 74.3C350.933 74.3 356.5 72.9 361.5 70.1C366.5 67.3 370.433 63.4333 373.3 58.5C376.167 53.5666 377.6 48.0666 377.6 42C377.6 35.9333 376.167 30.4333 373.3 25.5C370.433 20.5666 366.5 16.7 361.5 13.9C356.5 11.1 350.933 9.69998 344.8 9.69998C338.667 9.69998 333.1 11.1 328.1 13.9C323.167 16.7 319.267 20.5666 316.4 25.5C313.533 30.4333 312.1 35.9333 312.1 42C312.1 48.0666 313.533 53.5666 316.4 58.5C319.267 63.4333 323.167 67.3 328.1 70.1C333.1 72.9 338.667 74.3 344.8 74.3Z" fill="#48381D"/>
<path d="M426.791 6.99998C435.525 6.99998 442.325 9.06664 447.191 13.2C452.125 17.2666 454.591 22.9333 454.591 30.2C454.591 37.5333 452.125 43.2666 447.191 47.4C442.325 51.4666 435.525 53.5 426.791 53.5H405.891V77H402.491V6.99998H426.791ZM426.991 50.4C434.791 50.4 440.791 48.6666 444.991 45.2C449.191 41.6666 451.291 36.6666 451.291 30.2C451.291 23.8 449.191 18.8666 444.991 15.4C440.791 11.8666 434.791 10.1 426.991 10.1H405.891V50.4H426.991Z" fill="#48381D"/>
<path fill-rule="evenodd" clip-rule="evenodd" d="M343.5 19.5C339.906 19.4999 335.076 20.8386 329.476 25.6389C324.777 29.667 322.5 34.9782 322.5 39.5C322.5 40.3284 321.828 41 321 41C320.172 41 319.5 40.3284 319.5 39.5C319.5 34.0218 322.223 27.9046 327.524 23.3611C333.59 18.1616 339.093 16.4999 343.5 16.5C344.328 16.5 345 17.1716 345 18C345 18.8285 344.328 19.5 343.5 19.5Z" fill="#48381D"/>
</svg>
